<?xml version="1.0" encoding="UTF-8" standalone="no"?>
<!DOCTYPE svg PUBLIC "-//W3C//DTD SVG 1.1//EN" "http://www.w3.org/Graphics/SVG/1.1/DTD/svg11.dtd">
<svg xmlns="http://www.w3.org/2000/svg" version="1.1" viewBox="0.00 0.00 110.00 185.00">
<g stroke-width="2.00" fill="none" stroke-linecap="butt">
<path stroke="#94c2ff" vector-effect="non-scaling-stroke" d="
  M 59.00 152.72
  L 59.00 160.78
  A 1.85 1.84 69.6 0 0 62.05 162.18
  C 68.22 156.85 75.64 154.39 80.89 162.80
  Q 81.68 164.05 83.08 163.56
  Q 84.00 163.24 83.82 161.38
  A 1.78 1.73 26.7 0 0 83.55 160.60
  Q 75.62 148.66 62.85 156.68
  A 0.10 0.09 71.5 0 1 62.70 156.60
  Q 62.62 153.51 62.76 150.27
  A 0.39 0.38 78.4 0 1 62.97 149.94
  Q 74.24 144.53 84.19 138.05
  Q 92.57 132.59 96.99 125.02
  C 104.25 112.56 106.12 97.23 104.02 83.00
  Q 102.98 75.99 99.32 70.92
  A 0.95 0.94 46.2 0 1 99.34 69.80
  C 108.10 58.33 106.37 40.42 99.85 28.85
  C 96.39 22.73 99.81 15.21 105.86 12.41
  Q 107.03 11.86 107.46 10.72
  A 1.78 1.77 29.3 0 0 106.88 8.68
  C 101.21 4.34 91.62 6.34 85.88 9.51
  C 84.59 10.22 83.83 11.58 82.55 12.31
  A 1.02 1.02 0.0 0 1 81.57 12.31
  C 73.86 8.00 63.24 7.97 54.75 9.22
  Q 50.27 9.89 45.19 12.53
  Q 44.72 12.78 44.27 12.51
  C 43.78 12.22 43.37 11.64 42.89 11.24
  C 38.26 7.45 25.79 2.37 21.55 9.35
  A 1.53 1.53 0.0 0 0 22.04 11.43
  C 27.17 14.70 33.31 18.51 29.44 25.78
  C 26.42 31.43 22.87 36.69 21.93 43.07
  Q 20.16 55.07 25.58 66.85
  Q 25.83 67.38 25.42 67.80
  Q 24.34 68.90 23.09 69.91
  C -0.38 88.75 -1.37 120.67 6.07 147.58
  Q 10.89 165.01 14.34 178.76
  Q 14.55 179.61 14.97 180.42
  A 1.50 1.49 45.7 0 0 17.60 180.46
  Q 21.23 173.90 27.01 169.73
  Q 33.88 164.79 41.59 161.01
  A 0.48 0.47 77.6 0 1 42.27 161.45
  L 42.19 165.69
  A 1.71 1.71 0.0 0 0 44.56 167.30
  C 48.25 165.73 52.51 164.75 55.81 167.62
  C 57.66 169.22 58.41 172.04 59.34 174.23
  A 1.50 1.49 84.8 0 0 60.38 175.10
  Q 61.13 175.27 61.74 174.97
  Q 62.81 174.45 62.57 173.28
  C 60.91 165.16 55.27 160.51 46.56 162.91
  Q 45.98 163.07 45.98 162.47
  L 46.00 159.14
  Q 46.00 158.44 46.62 158.13
  L 58.19 152.22
  A 0.56 0.56 0.0 0 1 59.00 152.72"
/>
<path stroke="#94c2ff" vector-effect="non-scaling-stroke" d="
  M 94.52 72.34
  A 1.41 1.41 0.0 0 1 93.97 69.96
  Q 100.62 63.68 101.40 54.61
  Q 102.54 41.40 96.82 31.20
  C 93.05 24.49 94.59 16.06 100.71 11.02
  Q 101.83 10.10 100.38 10.07
  C 95.30 9.98 86.97 10.92 84.87 16.53
  A 1.49 1.49 0.0 0 1 82.62 17.22
  Q 76.95 13.20 69.93 12.53
  C 63.06 11.88 56.32 12.23 49.97 14.36
  Q 47.29 15.26 45.08 17.69
  A 1.06 1.05 -40.0 0 1 43.40 17.55
  Q 38.68 10.09 28.86 9.79
  Q 25.86 9.70 28.31 11.43
  C 32.15 14.13 35.19 18.58 34.11 23.31
  C 32.42 30.70 26.04 36.74 25.39 44.75
  Q 24.03 61.66 34.59 73.53
  Q 35.48 74.53 34.58 75.52
  L 34.30 75.83
  Q 33.48 76.73 32.54 75.97
  Q 30.17 74.09 28.49 71.60
  A 1.07 1.06 54.1 0 0 26.95 71.35
  C 12.74 82.48 5.97 98.55 5.74 116.36
  Q 5.54 132.10 9.57 146.17
  Q 12.95 157.92 15.17 167.02
  Q 15.74 169.33 15.95 166.96
  Q 16.59 159.92 15.90 152.71
  Q 15.19 145.45 20.20 139.97
  C 34.15 124.68 51.93 113.14 49.93 89.33
  Q 49.81 87.94 51.06 87.31
  Q 51.93 86.87 53.14 88.20
  A 1.90 1.85 -69.5 0 1 53.62 89.29
  Q 54.78 103.15 47.82 114.83
  C 42.68 123.45 34.75 130.95 27.16 138.00
  C 23.37 141.52 19.12 146.18 19.60 151.39
  Q 20.40 160.15 19.31 170.76
  Q 19.19 171.96 20.10 171.17
  Q 30.56 162.15 42.90 156.11
  Q 60.52 147.48 77.22 138.05
  Q 84.58 133.90 89.38 128.88
  C 100.98 116.75 103.07 95.82 99.67 79.70
  C 99.07 76.88 97.54 73.28 94.52 72.34"
/>
<path stroke="#94c2ff" vector-effect="non-scaling-stroke" d="
  M 63.01 33.75
  C 60.16 27.68 54.48 24.06 47.83 23.56
  C 33.21 22.47 29.11 38.14 30.06 49.90
  C 30.74 58.35 33.41 66.78 40.89 71.24
  C 52.70 78.30 68.72 79.96 81.23 73.69
  Q 91.06 68.76 95.66 57.33
  C 98.62 49.97 98.07 42.37 94.79 35.26
  Q 91.06 27.16 83.56 24.46
  C 75.05 21.40 67.79 26.48 63.89 33.77
  A 0.49 0.49 0.0 0 1 63.01 33.75"
/>
<path stroke="#94c2ff" vector-effect="non-scaling-stroke" d="
  M 36.15 106.46
  C 33.40 105.61 33.49 100.75 33.64 98.56
  A 1.47 1.47 0.0 0 0 32.44 97.01
  L 32.07 96.94
  Q 30.34 96.61 30.07 98.35
  C 29.21 103.92 31.09 110.72 38.01 110.44
  C 44.39 110.19 46.70 104.63 46.64 99.16
  Q 46.62 97.50 44.95 96.99
  Q 44.18 96.75 43.30 98.24
  A 1.56 1.48 62.0 0 0 43.10 98.96
  C 43.07 103.03 41.41 108.11 36.15 106.46"
/>
<path stroke="#94c2ff" vector-effect="non-scaling-stroke" d="
  M 29.92 113.04
  C 29.99 116.72 29.21 121.01 24.68 121.29
  C 20.42 121.56 20.38 116.37 20.51 113.59
  C 20.56 112.54 19.87 111.70 18.93 111.33
  A 1.32 1.32 0.0 0 0 17.17 112.23
  Q 16.28 115.70 17.18 119.26
  C 18.22 123.36 22.34 125.80 26.47 124.75
  Q 33.66 122.91 33.49 113.52
  Q 33.46 111.77 31.76 111.39
  Q 31.03 111.22 30.28 112.07
  A 1.36 1.35 65.5 0 0 29.92 113.04"
/>
<path stroke="#94c2ff" vector-effect="non-scaling-stroke" d="
  M 61.73 40.78
  C 60.91 39.15 60.89 37.25 60.05 35.56
  Q 57.33 30.09 51.93 28.24
  C 44.43 25.67 38.48 28.11 35.65 35.10
  C 32.08 43.90 32.76 59.91 40.67 66.36
  C 46.98 71.51 56.50 73.73 64.28 73.92
  Q 72.31 74.12 79.81 70.28
  Q 87.54 66.32 91.47 57.74
  Q 96.55 46.63 90.92 35.58
  C 89.27 32.34 86.51 29.72 83.21 28.33
  C 73.84 24.40 67.49 33.13 64.43 40.67
  A 1.48 1.48 0.0 0 1 61.73 40.78"
/>
<path stroke="#94c2ff" vector-effect="non-scaling-stroke" d="
  M 56.57 49.67
  C 56.03 41.82 49.20 38.58 42.21 38.75
  Q 41.11 38.78 40.12 39.29
  Q 38.79 39.98 39.06 40.76
  Q 39.58 42.21 41.11 42.22
  C 46.75 42.26 52.16 43.32 53.05 49.99
  A 1.49 1.48 10.4 0 0 53.82 51.10
  Q 55.06 51.75 56.07 50.88
  A 1.47 1.47 0.0 0 0 56.57 49.67"
/>
<path stroke="#94c2ff" vector-effect="non-scaling-stroke" d="
  M 76.97 44.20
  Q 80.24 42.52 85.86 42.40
  A 1.40 1.39 -89.3 0 0 87.22 41.06
  L 87.25 40.43
  Q 87.32 38.92 85.81 38.81
  C 78.26 38.29 69.81 41.50 70.21 50.48
  Q 70.24 51.01 70.71 51.26
  C 71.71 51.80 73.24 51.33 73.57 50.15
  C 74.21 47.86 74.74 45.34 76.97 44.20"
/>
<path stroke="#94c2ff" vector-effect="non-scaling-stroke" d="
  M 63.15 63.99
  L 58.98 55.02
  A 1.34 1.34 0.0 0 0 57.30 54.32
  L 56.85 54.49
  Q 55.14 55.13 55.85 56.80
  Q 58.79 63.71 62.16 70.55
  Q 62.60 71.44 63.13 71.63
  Q 64.05 71.98 64.78 71.06
  Q 65.24 70.48 65.53 69.81
  Q 68.23 63.51 70.78 56.93
  Q 71.40 55.30 69.85 54.52
  Q 69.68 54.43 69.51 54.33
  A 1.36 1.36 0.0 0 0 67.57 55.00
  L 63.95 63.96
  Q 63.58 64.90 63.15 63.99"
/>
</g>
<path fill="#1479fb" d="
  M 0.00 0.00
  L 110.00 0.00
  L 110.00 185.00
  L 0.00 185.00
  L 0.00 0.00
  Z
  M 59.00 152.72
  L 59.00 160.78
  A 1.85 1.84 69.6 0 0 62.05 162.18
  C 68.22 156.85 75.64 154.39 80.89 162.80
  Q 81.68 164.05 83.08 163.56
  Q 84.00 163.24 83.82 161.38
  A 1.78 1.73 26.7 0 0 83.55 160.60
  Q 75.62 148.66 62.85 156.68
  A 0.10 0.09 71.5 0 1 62.70 156.60
  Q 62.62 153.51 62.76 150.27
  A 0.39 0.38 78.4 0 1 62.97 149.94
  Q 74.24 144.53 84.19 138.05
  Q 92.57 132.59 96.99 125.02
  C 104.25 112.56 106.12 97.23 104.02 83.00
  Q 102.98 75.99 99.32 70.92
  A 0.95 0.94 46.2 0 1 99.34 69.80
  C 108.10 58.33 106.37 40.42 99.85 28.85
  C 96.39 22.73 99.81 15.21 105.86 12.41
  Q 107.03 11.86 107.46 10.72
  A 1.78 1.77 29.3 0 0 106.88 8.68
  C 101.21 4.34 91.62 6.34 85.88 9.51
  C 84.59 10.22 83.83 11.58 82.55 12.31
  A 1.02 1.02 0.0 0 1 81.57 12.31
  C 73.86 8.00 63.24 7.97 54.75 9.22
  Q 50.27 9.89 45.19 12.53
  Q 44.72 12.78 44.27 12.51
  C 43.78 12.22 43.37 11.64 42.89 11.24
  C 38.26 7.45 25.79 2.37 21.55 9.35
  A 1.53 1.53 0.0 0 0 22.04 11.43
  C 27.17 14.70 33.31 18.51 29.44 25.78
  C 26.42 31.43 22.87 36.69 21.93 43.07
  Q 20.16 55.07 25.58 66.85
  Q 25.83 67.38 25.42 67.80
  Q 24.34 68.90 23.09 69.91
  C -0.38 88.75 -1.37 120.67 6.07 147.58
  Q 10.89 165.01 14.34 178.76
  Q 14.55 179.61 14.97 180.42
  A 1.50 1.49 45.7 0 0 17.60 180.46
  Q 21.23 173.90 27.01 169.73
  Q 33.88 164.79 41.59 161.01
  A 0.48 0.47 77.6 0 1 42.27 161.45
  L 42.19 165.69
  A 1.71 1.71 0.0 0 0 44.56 167.30
  C 48.25 165.73 52.51 164.75 55.81 167.62
  C 57.66 169.22 58.41 172.04 59.34 174.23
  A 1.50 1.49 84.8 0 0 60.38 175.10
  Q 61.13 175.27 61.74 174.97
  Q 62.81 174.45 62.57 173.28
  C 60.91 165.16 55.27 160.51 46.56 162.91
  Q 45.98 163.07 45.98 162.47
  L 46.00 159.14
  Q 46.00 158.44 46.62 158.13
  L 58.19 152.22
  A 0.56 0.56 0.0 0 1 59.00 152.72
  Z"
/>
<path fill="#ffffff" d="
  M 59.00 152.72
  A 0.56 0.56 0.0 0 0 58.19 152.22
  L 46.62 158.13
  Q 46.00 158.44 46.00 159.14
  L 45.98 162.47
  Q 45.98 163.07 46.56 162.91
  C 55.27 160.51 60.91 165.16 62.57 173.28
  Q 62.81 174.45 61.74 174.97
  Q 61.13 175.27 60.38 175.10
  A 1.50 1.49 84.8 0 1 59.34 174.23
  C 58.41 172.04 57.66 169.22 55.81 167.62
  C 52.51 164.75 48.25 165.73 44.56 167.30
  A 1.71 1.71 0.0 0 1 42.19 165.69
  L 42.27 161.45
  A 0.48 0.47 77.6 0 0 41.59 161.01
  Q 33.88 164.79 27.01 169.73
  Q 21.23 173.90 17.60 180.46
  A 1.50 1.49 45.7 0 1 14.97 180.42
  Q 14.55 179.61 14.34 178.76
  Q 10.89 165.01 6.07 147.58
  C -1.37 120.67 -0.38 88.75 23.09 69.91
  Q 24.34 68.90 25.42 67.80
  Q 25.83 67.38 25.58 66.85
  Q 20.16 55.07 21.93 43.07
  C 22.87 36.69 26.42 31.43 29.44 25.78
  C 33.31 18.51 27.17 14.70 22.04 11.43
  A 1.53 1.53 0.0 0 1 21.55 9.35
  C 25.79 2.37 38.26 7.45 42.89 11.24
  C 43.37 11.64 43.78 12.22 44.27 12.51
  Q 44.72 12.78 45.19 12.53
  Q 50.27 9.89 54.75 9.22
  C 63.24 7.97 73.86 8.00 81.57 12.31
  A 1.02 1.02 0.0 0 0 82.55 12.31
  C 83.83 11.58 84.59 10.22 85.88 9.51
  C 91.62 6.34 101.21 4.34 106.88 8.68
  A 1.78 1.77 29.3 0 1 107.46 10.72
  Q 107.03 11.86 105.86 12.41
  C 99.81 15.21 96.39 22.73 99.85 28.85
  C 106.37 40.42 108.10 58.33 99.34 69.80
  A 0.95 0.94 46.2 0 0 99.32 70.92
  Q 102.98 75.99 104.02 83.00
  C 106.12 97.23 104.25 112.56 96.99 125.02
  Q 92.57 132.59 84.19 138.05
  Q 74.24 144.53 62.97 149.94
  A 0.39 0.38 78.4 0 0 62.76 150.27
  Q 62.62 153.51 62.70 156.60
  A 0.10 0.09 71.5 0 0 62.85 156.68
  Q 75.62 148.66 83.55 160.60
  A 1.78 1.73 26.7 0 1 83.82 161.38
  Q 84.00 163.24 83.08 163.56
  Q 81.68 164.05 80.89 162.80
  C 75.64 154.39 68.22 156.85 62.05 162.18
  A 1.85 1.84 69.6 0 1 59.00 160.78
  L 59.00 152.72
  Z
  M 94.52 72.34
  A 1.41 1.41 0.0 0 1 93.97 69.96
  Q 100.62 63.68 101.40 54.61
  Q 102.54 41.40 96.82 31.20
  C 93.05 24.49 94.59 16.06 100.71 11.02
  Q 101.83 10.10 100.38 10.07
  C 95.30 9.98 86.97 10.92 84.87 16.53
  A 1.49 1.49 0.0 0 1 82.62 17.22
  Q 76.95 13.20 69.93 12.53
  C 63.06 11.88 56.32 12.23 49.97 14.36
  Q 47.29 15.26 45.08 17.69
  A 1.06 1.05 -40.0 0 1 43.40 17.55
  Q 38.68 10.09 28.86 9.79
  Q 25.86 9.70 28.31 11.43
  C 32.15 14.13 35.19 18.58 34.11 23.31
  C 32.42 30.70 26.04 36.74 25.39 44.75
  Q 24.03 61.66 34.59 73.53
  Q 35.48 74.53 34.58 75.52
  L 34.30 75.83
  Q 33.48 76.73 32.54 75.97
  Q 30.17 74.09 28.49 71.60
  A 1.07 1.06 54.1 0 0 26.95 71.35
  C 12.74 82.48 5.97 98.55 5.74 116.36
  Q 5.54 132.10 9.57 146.17
  Q 12.95 157.92 15.17 167.02
  Q 15.74 169.33 15.95 166.96
  Q 16.59 159.92 15.90 152.71
  Q 15.19 145.45 20.20 139.97
  C 34.15 124.68 51.93 113.14 49.93 89.33
  Q 49.81 87.94 51.06 87.31
  Q 51.93 86.87 53.14 88.20
  A 1.90 1.85 -69.5 0 1 53.62 89.29
  Q 54.78 103.15 47.82 114.83
  C 42.68 123.45 34.75 130.95 27.16 138.00
  C 23.37 141.52 19.12 146.18 19.60 151.39
  Q 20.40 160.15 19.31 170.76
  Q 19.19 171.96 20.10 171.17
  Q 30.56 162.15 42.90 156.11
  Q 60.52 147.48 77.22 138.05
  Q 84.58 133.90 89.38 128.88
  C 100.98 116.75 103.07 95.82 99.67 79.70
  C 99.07 76.88 97.54 73.28 94.52 72.34
  Z"
/>
<path fill="#1479fb" d="
  M 94.52 72.34
  C 97.54 73.28 99.07 76.88 99.67 79.70
  C 103.07 95.82 100.98 116.75 89.38 128.88
  Q 84.58 133.90 77.22 138.05
  Q 60.52 147.48 42.90 156.11
  Q 30.56 162.15 20.10 171.17
  Q 19.19 171.96 19.31 170.76
  Q 20.40 160.15 19.60 151.39
  C 19.12 146.18 23.37 141.52 27.16 138.00
  C 34.75 130.95 42.68 123.45 47.82 114.83
  Q 54.78 103.15 53.62 89.29
  A 1.90 1.85 -69.5 0 0 53.14 88.20
  Q 51.93 86.87 51.06 87.31
  Q 49.81 87.94 49.93 89.33
  C 51.93 113.14 34.15 124.68 20.20 139.97
  Q 15.19 145.45 15.90 152.71
  Q 16.59 159.92 15.95 166.96
  Q 15.74 169.33 15.17 167.02
  Q 12.95 157.92 9.57 146.17
  Q 5.54 132.10 5.74 116.36
  C 5.97 98.55 12.74 82.48 26.95 71.35
  A 1.07 1.06 54.1 0 1 28.49 71.60
  Q 30.17 74.09 32.54 75.97
  Q 33.48 76.73 34.30 75.83
  L 34.58 75.52
  Q 35.48 74.53 34.59 73.53
  Q 24.03 61.66 25.39 44.75
  C 26.04 36.74 32.42 30.70 34.11 23.31
  C 35.19 18.58 32.15 14.13 28.31 11.43
  Q 25.86 9.70 28.86 9.79
  Q 38.68 10.09 43.40 17.55
  A 1.06 1.05 -40.0 0 0 45.08 17.69
  Q 47.29 15.26 49.97 14.36
  C 56.32 12.23 63.06 11.88 69.93 12.53
  Q 76.95 13.20 82.62 17.22
  A 1.49 1.49 0.0 0 0 84.87 16.53
  C 86.97 10.92 95.30 9.98 100.38 10.07
  Q 101.83 10.10 100.71 11.02
  C 94.59 16.06 93.05 24.49 96.82 31.20
  Q 102.54 41.40 101.40 54.61
  Q 100.62 63.68 93.97 69.96
  A 1.41 1.41 0.0 0 0 94.52 72.34
  Z
  M 63.01 33.75
  C 60.16 27.68 54.48 24.06 47.83 23.56
  C 33.21 22.47 29.11 38.14 30.06 49.90
  C 30.74 58.35 33.41 66.78 40.89 71.24
  C 52.70 78.30 68.72 79.96 81.23 73.69
  Q 91.06 68.76 95.66 57.33
  C 98.62 49.97 98.07 42.37 94.79 35.26
  Q 91.06 27.16 83.56 24.46
  C 75.05 21.40 67.79 26.48 63.89 33.77
  A 0.49 0.49 0.0 0 1 63.01 33.75
  Z
  M 36.15 106.46
  C 33.40 105.61 33.49 100.75 33.64 98.56
  A 1.47 1.47 0.0 0 0 32.44 97.01
  L 32.07 96.94
  Q 30.34 96.61 30.07 98.35
  C 29.21 103.92 31.09 110.72 38.01 110.44
  C 44.39 110.19 46.70 104.63 46.64 99.16
  Q 46.62 97.50 44.95 96.99
  Q 44.18 96.75 43.30 98.24
  A 1.56 1.48 62.0 0 0 43.10 98.96
  C 43.07 103.03 41.41 108.11 36.15 106.46
  Z
  M 29.92 113.04
  C 29.99 116.72 29.21 121.01 24.68 121.29
  C 20.42 121.56 20.38 116.37 20.51 113.59
  C 20.56 112.54 19.87 111.70 18.93 111.33
  A 1.32 1.32 0.0 0 0 17.17 112.23
  Q 16.28 115.70 17.18 119.26
  C 18.22 123.36 22.34 125.80 26.47 124.75
  Q 33.66 122.91 33.49 113.52
  Q 33.46 111.77 31.76 111.39
  Q 31.03 111.22 30.28 112.07
  A 1.36 1.35 65.5 0 0 29.92 113.04
  Z"
/>
<path fill="#ffffff" d="
  M 63.01 33.75
  A 0.49 0.49 0.0 0 0 63.89 33.77
  C 67.79 26.48 75.05 21.40 83.56 24.46
  Q 91.06 27.16 94.79 35.26
  C 98.07 42.37 98.62 49.97 95.66 57.33
  Q 91.06 68.76 81.23 73.69
  C 68.72 79.96 52.70 78.30 40.89 71.24
  C 33.41 66.78 30.74 58.35 30.06 49.90
  C 29.11 38.14 33.21 22.47 47.83 23.56
  C 54.48 24.06 60.16 27.68 63.01 33.75
  Z
  M 61.73 40.78
  C 60.91 39.15 60.89 37.25 60.05 35.56
  Q 57.33 30.09 51.93 28.24
  C 44.43 25.67 38.48 28.11 35.65 35.10
  C 32.08 43.90 32.76 59.91 40.67 66.36
  C 46.98 71.51 56.50 73.73 64.28 73.92
  Q 72.31 74.12 79.81 70.28
  Q 87.54 66.32 91.47 57.74
  Q 96.55 46.63 90.92 35.58
  C 89.27 32.34 86.51 29.72 83.21 28.33
  C 73.84 24.40 67.49 33.13 64.43 40.67
  A 1.48 1.48 0.0 0 1 61.73 40.78
  Z"
/>
<path fill="#1479fb" d="
  M 61.73 40.78
  A 1.48 1.48 0.0 0 0 64.43 40.67
  C 67.49 33.13 73.84 24.40 83.21 28.33
  C 86.51 29.72 89.27 32.34 90.92 35.58
  Q 96.55 46.63 91.47 57.74
  Q 87.54 66.32 79.81 70.28
  Q 72.31 74.12 64.28 73.92
  C 56.50 73.73 46.98 71.51 40.67 66.36
  C 32.76 59.91 32.08 43.90 35.65 35.10
  C 38.48 28.11 44.43 25.67 51.93 28.24
  Q 57.33 30.09 60.05 35.56
  C 60.89 37.25 60.91 39.15 61.73 40.78
  Z
  M 56.57 49.67
  C 56.03 41.82 49.20 38.58 42.21 38.75
  Q 41.11 38.78 40.12 39.29
  Q 38.79 39.98 39.06 40.76
  Q 39.58 42.21 41.11 42.22
  C 46.75 42.26 52.16 43.32 53.05 49.99
  A 1.49 1.48 10.4 0 0 53.82 51.10
  Q 55.06 51.75 56.07 50.88
  A 1.47 1.47 0.0 0 0 56.57 49.67
  Z
  M 76.97 44.20
  Q 80.24 42.52 85.86 42.40
  A 1.40 1.39 -89.3 0 0 87.22 41.06
  L 87.25 40.43
  Q 87.32 38.92 85.81 38.81
  C 78.26 38.29 69.81 41.50 70.21 50.48
  Q 70.24 51.01 70.71 51.26
  C 71.71 51.80 73.24 51.33 73.57 50.15
  C 74.21 47.86 74.74 45.34 76.97 44.20
  Z
  M 63.15 63.99
  L 58.98 55.02
  A 1.34 1.34 0.0 0 0 57.30 54.32
  L 56.85 54.49
  Q 55.14 55.13 55.85 56.80
  Q 58.79 63.71 62.16 70.55
  Q 62.60 71.44 63.13 71.63
  Q 64.05 71.98 64.78 71.06
  Q 65.24 70.48 65.53 69.81
  Q 68.23 63.51 70.78 56.93
  Q 71.40 55.30 69.85 54.52
  Q 69.68 54.43 69.51 54.33
  A 1.36 1.36 0.0 0 0 67.57 55.00
  L 63.95 63.96
  Q 63.58 64.90 63.15 63.99
  Z"
/>
<path fill="#ffffff" d="
  M 42.21 38.75
  C 49.20 38.58 56.03 41.82 56.57 49.67
  A 1.47 1.47 0.0 0 1 56.07 50.88
  Q 55.06 51.75 53.82 51.10
  A 1.49 1.48 10.4 0 1 53.05 49.99
  C 52.16 43.32 46.75 42.26 41.11 42.22
  Q 39.58 42.21 39.06 40.76
  Q 38.79 39.98 40.12 39.29
  Q 41.11 38.78 42.21 38.75
  Z"
/>
<path fill="#ffffff" d="
  M 76.97 44.20
  C 74.74 45.34 74.21 47.86 73.57 50.15
  C 73.24 51.33 71.71 51.80 70.71 51.26
  Q 70.24 51.01 70.21 50.48
  C 69.81 41.50 78.26 38.29 85.81 38.81
  Q 87.32 38.92 87.25 40.43
  L 87.22 41.06
  A 1.40 1.39 -89.3 0 1 85.86 42.40
  Q 80.24 42.52 76.97 44.20
  Z"
/>
<path fill="#ffffff" d="
  M 63.15 63.99
  Q 63.58 64.90 63.95 63.96
  L 67.57 55.00
  A 1.36 1.36 0.0 0 1 69.51 54.33
  Q 69.68 54.43 69.85 54.52
  Q 71.40 55.30 70.78 56.93
  Q 68.23 63.51 65.53 69.81
  Q 65.24 70.48 64.78 71.06
  Q 64.05 71.98 63.13 71.63
  Q 62.60 71.44 62.16 70.55
  Q 58.79 63.71 55.85 56.80
  Q 55.14 55.13 56.85 54.49
  L 57.30 54.32
  A 1.34 1.34 0.0 0 1 58.98 55.02
  L 63.15 63.99
  Z"
/>
<path fill="#ffffff" d="
  M 36.15 106.46
  C 41.41 108.11 43.07 103.03 43.10 98.96
  A 1.56 1.48 62.0 0 1 43.30 98.24
  Q 44.18 96.75 44.95 96.99
  Q 46.62 97.50 46.64 99.16
  C 46.70 104.63 44.39 110.19 38.01 110.44
  C 31.09 110.72 29.21 103.92 30.07 98.35
  Q 30.34 96.61 32.07 96.94
  L 32.44 97.01
  A 1.47 1.47 0.0 0 1 33.64 98.56
  C 33.49 100.75 33.40 105.61 36.15 106.46
  Z"
/>
<path fill="#ffffff" d="
  M 24.68 121.29
  C 29.21 121.01 29.99 116.72 29.92 113.04
  A 1.36 1.35 65.5 0 1 30.28 112.07
  Q 31.03 111.22 31.76 111.39
  Q 33.46 111.77 33.49 113.52
  Q 33.66 122.91 26.47 124.75
  C 22.34 125.80 18.22 123.36 17.18 119.26
  Q 16.28 115.70 17.17 112.23
  A 1.32 1.32 0.0 0 1 18.93 111.33
  C 19.87 111.70 20.56 112.54 20.51 113.59
  C 20.38 116.37 20.42 121.56 24.68 121.29
  Z"
/>
</svg>
